<svg xmlns="http://www.w3.org/2000/svg" viewBox="0 0 48 48">
  <defs>
    <style>
      .cls-1{fill:#f79f18}.cls-2{fill:#3488e5}
    </style>
  </defs>
  <path class="cls-1" d="M12.92,16.27l-5.65,5.66a2.66,2.66,0,0,0,0,3.75L12.92,31.34a2.66,2.66,0,0,0,3.75,0l5.66-5.65a2.66,2.66,0,0,0,0-3.75l-5.66-5.66A2.66,2.66,0,0,0,12.92,16.27Z"/>
  <path class="cls-2" d="M25.73,16.27l5.66,5.66a2.66,2.66,0,0,1,0,3.75l-5.66,5.66a2.66,2.66,0,0,1-3.75,0l-5.66-5.65a2.66,2.66,0,0,1,0-3.75l5.66-5.66A2.66,2.66,0,0,1,25.73,16.27Z"/>
</svg>
